<svg width="34" height="24" viewBox="0 0 34 24" fill="none" xmlns="http://www.w3.org/2000/svg">
<g clip-path="url(#clip0_13_632)">
<path d="M23.8645 13.6918H23.0515L22.7633 13.4294C23.7719 12.3213 24.3791 10.8828 24.3791 9.3179C24.3791 5.82847 21.3842 3 17.6895 3C13.9949 3 11 5.82847 11 9.3179C11 12.8073 13.9949 15.6358 17.6895 15.6358C19.3465 15.6358 20.8696 15.0623 22.0429 14.1098L22.3208 14.3819V15.1498L27.4666 20L29 18.5517L23.8645 13.6918ZM17.6895 13.6918C15.1269 13.6918 13.0583 11.7381 13.0583 9.3179C13.0583 6.89766 15.1269 4.94397 17.6895 4.94397C20.2521 4.94397 22.3208 6.89766 22.3208 9.3179C22.3208 11.7381 20.2521 13.6918 17.6895 13.6918Z" fill="#323232"/>
</g>
<defs>
<clipPath id="clip0_13_632">
<rect width="33.3913" height="24" fill="white" transform="translate(0.565247)"/>
</clipPath>
</defs>
</svg>
