<svg width="27" height="27" viewBox="0 0 27 27" fill="none" xmlns="http://www.w3.org/2000/svg">
<path d="M22.5 5.625C22.7984 5.625 23.0845 5.74353 23.2955 5.9545C23.5065 6.16548 23.625 6.45163 23.625 6.75C23.625 7.04837 23.5065 7.33452 23.2955 7.54549C23.0845 7.75647 22.7984 7.875 22.5 7.875H21.375L21.3716 7.95487L20.322 22.6597C20.2816 23.2274 20.0276 23.7587 19.6111 24.1465C19.1947 24.5344 18.6467 24.75 18.0776 24.75H8.92125C8.35216 24.75 7.8042 24.5344 7.38775 24.1465C6.97129 23.7587 6.71728 23.2274 6.67687 22.6597L5.62725 7.956C5.62554 7.92903 5.62479 7.90202 5.625 7.875H4.5C4.20163 7.875 3.91548 7.75647 3.7045 7.54549C3.49353 7.33452 3.375 7.04837 3.375 6.75C3.375 6.45163 3.49353 6.16548 3.7045 5.9545C3.91548 5.74353 4.20163 5.625 4.5 5.625H22.5ZM19.1216 7.875H7.87837L8.92238 22.5H18.0776L19.1216 7.875ZM15.75 2.25C16.0484 2.25 16.3345 2.36853 16.5455 2.5795C16.7565 2.79048 16.875 3.07663 16.875 3.375C16.875 3.67337 16.7565 3.95952 16.5455 4.1705C16.3345 4.38147 16.0484 4.5 15.75 4.5H11.25C10.9516 4.5 10.6655 4.38147 10.4545 4.1705C10.2435 3.95952 10.125 3.67337 10.125 3.375C10.125 3.07663 10.2435 2.79048 10.4545 2.5795C10.6655 2.36853 10.9516 2.25 11.25 2.25H15.75Z" fill="#202124"/>
</svg>
