<svg width="28" height="28" viewBox="0 0 24 24" fill="none" xmlns="http://www.w3.org/2000/svg">
<path d="M6.29 12.71L11.29 17.71C11.3851 17.801 11.4973 17.8724 11.62 17.92C11.8635 18.02 12.1365 18.02 12.38 17.92C12.5028 17.8724 12.6149 17.801 12.71 17.71L17.71 12.71C17.8032 12.6167 17.8772 12.5061 17.9277 12.3842C17.9781 12.2624 18.0041 12.1318 18.0041 12C18.0041 11.7337 17.8983 11.4783 17.71 11.29C17.5217 11.1017 17.2663 10.9959 17 10.9959C16.7337 10.9959 16.4783 11.1017 16.29 11.29L13 14.59L13 6.99998C13 6.73477 12.8946 6.48041 12.7071 6.29287C12.5196 6.10534 12.2652 5.99998 12 5.99998C11.7348 5.99998 11.4804 6.10534 11.2929 6.29287C11.1054 6.48041 11 6.73477 11 6.99998L11 14.59L7.71 11.29C7.61704 11.1963 7.50644 11.1219 7.38458 11.0711C7.26272 11.0203 7.13201 10.9942 7 10.9942C6.86799 10.9942 6.73728 11.0203 6.61543 11.0711C6.49357 11.1219 6.38297 11.1963 6.29 11.29C6.19627 11.3829 6.12188 11.4935 6.07111 11.6154C6.02034 11.7373 5.9942 11.868 5.9942 12C5.9942 12.132 6.02034 12.2627 6.07111 12.3846C6.12188 12.5064 6.19627 12.617 6.29 12.71Z" fill="black"/>
</svg>
